<svg width="108" height="22" viewBox="0 0 108 22" fill="none" xmlns="http://www.w3.org/2000/svg">
<path d="M0.000625081 21.3008V0.000780106H7.74063L12.2406 13.5308L16.7406 0.000780106H24.4806V21.3008H18.6006V9.30078L14.3106 21.2108H10.1406L5.88063 9.30078V21.3008H0.000625081ZM32.8705 21.6608C31.1705 21.6608 29.7705 21.2708 28.6705 20.4908C27.5705 19.7108 27.0205 18.6208 27.0205 17.2208C27.0205 15.7808 27.4905 14.6808 28.4305 13.9208C29.3905 13.1408 30.7505 12.5608 32.5105 12.1808L37.3705 11.1608C37.3705 10.3208 37.1905 9.68078 36.8305 9.24078C36.4705 8.80078 35.9705 8.58078 35.3305 8.58078C34.6505 8.58078 34.1205 8.75078 33.7405 9.09078C33.3805 9.41078 33.1505 9.89078 33.0505 10.5308L27.2905 10.3508C27.6105 8.39078 28.4605 6.97078 29.8405 6.09078C31.2205 5.19078 33.0505 4.74078 35.3305 4.74078C37.9705 4.74078 39.9405 5.31078 41.2405 6.45078C42.5405 7.59078 43.1905 9.32078 43.1905 11.6408V16.3808C43.1905 16.9008 43.2705 17.2408 43.4305 17.4008C43.6105 17.5608 43.8505 17.6408 44.1505 17.6408H44.4805V21.3008C44.3005 21.3608 44.0105 21.4108 43.6105 21.4508C43.2105 21.5108 42.8205 21.5408 42.4405 21.5408C41.8605 21.5408 41.2605 21.4408 40.6405 21.2408C40.0205 21.0408 39.5005 20.6608 39.0805 20.1008C38.6605 19.5208 38.4505 18.6808 38.4505 17.5808L38.8705 18.0608C38.6505 18.8008 38.2905 19.4408 37.7905 19.9808C37.2905 20.5208 36.6305 20.9408 35.8105 21.2408C35.0105 21.5208 34.0305 21.6608 32.8705 21.6608ZM34.4905 18.0008C35.0305 18.0008 35.5105 17.8908 35.9305 17.6708C36.3705 17.4508 36.7205 17.1208 36.9805 16.6808C37.2405 16.2208 37.3705 15.6408 37.3705 14.9408V14.4008L34.7305 15.0608C34.2305 15.1808 33.8105 15.3808 33.4705 15.6608C33.1505 15.9208 32.9905 16.2608 32.9905 16.6808C32.9905 17.1008 33.1105 17.4308 33.3505 17.6708C33.5905 17.8908 33.9705 18.0008 34.4905 18.0008ZM52.8423 21.3008C51.0223 21.3008 49.6923 20.8808 48.8523 20.0408C48.0123 19.1808 47.5923 17.8208 47.5923 15.9608V1.29078H53.4123V15.1208C53.4123 15.9208 53.5723 16.4708 53.8923 16.7708C54.2323 17.0508 54.7423 17.1908 55.4223 17.1908H57.6423V21.3008H52.8423ZM44.8323 9.21078V5.10078H57.6423V9.21078H44.8323ZM65.1123 21.3008C63.2923 21.3008 61.9623 20.8808 61.1223 20.0408C60.2823 19.1808 59.8623 17.8208 59.8623 15.9608V1.29078H65.6823V15.1208C65.6823 15.9208 65.8423 16.4708 66.1623 16.7708C66.5023 17.0508 67.0123 17.1908 67.6923 17.1908H69.9123V21.3008H65.1123ZM57.1023 9.21078V5.10078H69.9123V9.21078H57.1023ZM79.8409 21.6608C78.1009 21.6608 76.5809 21.3108 75.2809 20.6108C73.9809 19.9108 72.9709 18.9308 72.2509 17.6708C71.5309 16.3908 71.1709 14.9008 71.1709 13.2008C71.1709 11.5008 71.5309 10.0208 72.2509 8.76078C72.9709 7.50078 73.9809 6.52078 75.2809 5.82078C76.5809 5.10078 78.1009 4.74078 79.8409 4.74078C81.5809 4.74078 83.0809 5.11078 84.3409 5.85078C85.6209 6.57078 86.6009 7.60078 87.2809 8.94078C87.9609 10.2808 88.3009 11.8608 88.3009 13.6808V14.7008H77.1709C77.2109 15.6808 77.4809 16.4108 77.9809 16.8908C78.5009 17.3508 79.1609 17.5808 79.9609 17.5808C80.5409 17.5808 81.0309 17.4708 81.4309 17.2508C81.8509 17.0308 82.1509 16.6408 82.3309 16.0808L88.0909 16.3808C87.6509 18.1208 86.6909 19.4408 85.2109 20.3408C83.7309 21.2208 81.9409 21.6608 79.8409 21.6608ZM77.1709 11.5808H82.4809C82.4609 10.6408 82.2109 9.93078 81.7309 9.45078C81.2509 8.95078 80.6209 8.70078 79.8409 8.70078C79.1009 8.70078 78.4809 8.96078 77.9809 9.48078C77.5009 10.0008 77.2309 10.7008 77.1709 11.5808ZM98.5909 21.6608C96.8509 21.6608 95.3309 21.3108 94.0309 20.6108C92.7309 19.9108 91.7209 18.9308 91.0009 17.6708C90.2809 16.3908 89.9209 14.9008 89.9209 13.2008C89.9209 11.5008 90.2809 10.0208 91.0009 8.76078C91.7209 7.50078 92.7309 6.52078 94.0309 5.82078C95.3309 5.10078 96.8509 4.74078 98.5909 4.74078C100.331 4.74078 101.831 5.11078 103.091 5.85078C104.371 6.57078 105.351 7.60078 106.031 8.94078C106.711 10.2808 107.051 11.8608 107.051 13.6808V14.7008H95.9209C95.9609 15.6808 96.2309 16.4108 96.7309 16.8908C97.2509 17.3508 97.9109 17.5808 98.7109 17.5808C99.2909 17.5808 99.7809 17.4708 100.181 17.2508C100.601 17.0308 100.901 16.6408 101.081 16.0808L106.841 16.3808C106.401 18.1208 105.441 19.4408 103.961 20.3408C102.481 21.2208 100.691 21.6608 98.5909 21.6608ZM95.9209 11.5808H101.231C101.211 10.6408 100.961 9.93078 100.481 9.45078C100.001 8.95078 99.3709 8.70078 98.5909 8.70078C97.8509 8.70078 97.2309 8.96078 96.7309 9.48078C96.2509 10.0008 95.9809 10.7008 95.9209 11.5808Z" fill="white"/>
</svg>
